<?xml version="1.0" standalone="no"?>
<!DOCTYPE svg PUBLIC "-//W3C//DTD SVG 20010904//EN"
 "http://www.w3.org/TR/2001/REC-SVG-20010904/DTD/svg10.dtd">
<svg version="1.0" xmlns="http://www.w3.org/2000/svg"
 width="1280.000000pt" height="644.000000pt" viewBox="0 0 1280.000000 644.000000"
 preserveAspectRatio="xMidYMid meet">
<metadata>
Created by potrace 1.15, written by Peter Selinger 2001-2017
</metadata>
<g transform="translate(0.000000,644.000000) scale(0.100000,-0.100000)"
fill="#000000" stroke="none">
<path d="M4393 6428 c-17 -8 -24 -27 -37 -97 -9 -47 -16 -94 -16 -104 0 -12
-14 -24 -41 -35 l-42 -16 7 -176 c4 -96 16 -357 26 -579 11 -223 17 -407 14
-410 -5 -5 -304 -10 -1273 -23 l-213 -3 -370 -539 c-273 -399 -366 -541 -356
-547 7 -5 31 -9 54 -9 23 0 76 -3 119 -7 l77 -6 -7 -601 c-4 -331 -10 -618
-14 -639 l-6 -38 -582 776 -582 777 -24 -39 c-126 -202 -486 -794 -491 -808
-2 -5 -5 -8 -8 -5 -3 3 -29 181 -57 395 -29 215 -54 395 -56 402 -3 9 -15 9
-52 -3 -100 -31 -95 -32 -128 35 -16 34 -30 61 -31 61 -2 0 -14 -5 -27 -11
-19 -9 -25 -23 -36 -85 l-12 -74 -40 -12 c-39 -11 -40 -13 -34 -47 3 -20 43
-289 90 -598 l84 -562 -150 -248 c-83 -136 -157 -261 -166 -276 -12 -24 -13
-69 -3 -320 5 -161 21 -616 35 -1011 14 -396 26 -721 28 -722 4 -3 1765 -31
3477 -55 1124 -15 1563 -15 1950 -1 327 12 607 21 1270 42 179 6 465 15 635
20 171 6 596 19 945 30 349 11 721 22 825 26 163 5 239 1 540 -25 193 -17 566
-49 830 -71 264 -22 584 -49 710 -60 127 -11 392 -33 590 -50 198 -17 492 -42
654 -56 161 -13 295 -23 298 -21 4 4 -5 96 -67 687 -11 102 -38 365 -60 585
-22 220 -47 465 -56 545 -8 80 -23 231 -34 335 -32 319 -60 583 -75 723 -8 74
-15 144 -15 156 l0 23 106 -19 c59 -10 108 -17 111 -15 2 3 -26 85 -63 183
-36 99 -92 251 -124 339 -48 130 -232 630 -271 736 -9 24 -16 27 -92 33 -45 4
-85 10 -88 14 -4 4 -53 162 -109 352 -57 190 -104 346 -106 348 -1 2 -30 -11
-64 -28 -34 -17 -66 -30 -70 -28 -5 2 -27 26 -48 55 -37 50 -40 52 -60 37 -19
-13 -22 -25 -22 -89 l0 -75 -37 -18 c-22 -10 -37 -24 -36 -32 2 -8 38 -127 82
-265 43 -137 78 -252 76 -253 -2 -2 -174 1 -382 7 -565 17 -972 29 -1224 37
l-225 7 -77 -189 c-219 -537 -252 -614 -264 -614 -8 0 -13 -15 -14 -42 -1
-115 -26 -559 -31 -564 -6 -6 -798 522 -798 532 0 3 18 123 40 267 48 306 140
916 140 923 0 2 -33 4 -74 4 -83 0 -81 -1 -92 80 -6 47 -8 50 -35 50 -26 0
-33 -8 -64 -70 -35 -69 -36 -70 -74 -70 -35 0 -40 -3 -45 -27 -3 -16 -33 -230
-67 -478 -34 -247 -63 -452 -65 -454 -1 -2 -18 6 -37 18 l-34 21 -974 0 -975
0 -199 -116 c-110 -64 -415 -242 -677 -395 -262 -154 -479 -279 -482 -279 -3
0 -6 162 -6 360 l0 360 58 -1 c31 0 94 -4 140 -7 45 -4 82 -3 82 1 0 5 -121
224 -270 488 l-270 478 -30 818 c-17 450 -32 819 -34 820 -1 2 -29 -6 -61 -17
-32 -11 -64 -20 -70 -20 -7 0 -23 37 -35 83 -13 45 -26 85 -29 88 -3 4 -16 2
-28 -3z m-273 -1448 c0 -6 -53 -9 -142 -8 -108 1 -128 3 -83 8 99 11 225 11
225 0z m140 0 c-80 -11 -120 -11 -120 0 0 6 35 9 88 9 84 -2 85 -2 32 -9z
m-995 -10 c4 -6 -20 -9 -67 -8 l-73 1 65 7 c36 4 66 7 67 8 1 1 5 -2 8 -8z
m250 -1 c-135 -11 -225 -10 -225 1 0 6 58 9 158 8 148 -1 152 -2 67 -9z m258
4 c-29 -2 -77 -2 -105 0 -29 2 -6 3 52 3 58 0 81 -1 53 -3z m-808 -13 c-3 -5
-37 -10 -74 -10 l-68 0 -27 -40 c-14 -22 -29 -40 -32 -40 -5 0 -2 6 36 63 l25
37 73 0 c46 0 71 -4 67 -10z m123 3 c-21 -2 -55 -2 -75 0 -21 2 -4 4 37 4 41
0 58 -2 38 -4z m-379 -182 c-24 -33 -44 -59 -46 -57 -2 2 15 31 38 65 24 33
44 59 46 57 2 -2 -15 -31 -38 -65z m-66 -94 c-26 -41 -66 -97 -70 -97 -5 0 3
13 39 68 16 23 31 42 34 42 3 0 1 -6 -3 -13z m2191 -331 c80 -143 144 -261
143 -263 -4 -4 -297 513 -297 524 0 12 9 -3 154 -261z m-2333 123 c-28 -40
-51 -70 -51 -66 0 12 93 148 98 143 2 -3 -19 -37 -47 -77z m-103 -153 c-24
-35 -45 -63 -47 -60 -5 5 72 124 82 124 4 0 -12 -29 -35 -64z m-144 -210 c-42
-64 -81 -116 -85 -116 -4 0 29 54 74 119 45 66 83 118 85 116 2 -1 -31 -55
-74 -119z m2786 -131 c0 -5 -11 8 -25 30 -13 22 -24 45 -25 50 0 6 11 -8 25
-30 13 -22 24 -44 25 -50z m-2910 -54 c-6 -12 -15 -21 -21 -21 -5 0 -2 11 7
25 20 30 31 26 14 -4z m3001 -102 c38 -67 68 -124 66 -125 -2 -2 -34 51 -72
119 -78 140 -81 144 -71 135 4 -3 39 -61 77 -129z m-2764 -1 c-2 -13 -4 -5 -4
17 -1 22 1 32 4 23 2 -10 2 -28 0 -40z m122 -11 c36 -56 34 -55 -24 11 -21 23
-31 42 -24 42 8 0 29 -24 48 -53z m39 -14 c23 -38 52 -84 64 -103 42 -67 0
-14 -61 78 -34 50 -58 92 -54 92 5 0 27 -30 51 -67z m5752 -69 c35 -23 51 -44
34 -44 -8 0 -94 60 -94 65 0 11 23 3 60 -21z m-3567 -45 c-10 -17 -24 -36 -32
-42 -8 -7 -2 7 14 31 32 49 45 57 18 11z m214 -326 c-1 -65 -3 -14 -3 112 0
127 2 180 3 118 2 -62 2 -165 0 -230z m-1207 199 c0 -5 -13 -7 -30 -4 -16 2
-30 6 -30 8 0 2 14 4 30 4 17 0 30 -4 30 -8z m-560 -44 c0 -19 -2 -20 -10 -8
-13 19 -13 30 0 30 6 0 10 -10 10 -22z m5899 -303 c214 -143 390 -263 390
-267 1 -5 -72 -7 -161 -6 l-163 2 127 5 c69 3 129 9 132 12 3 3 -161 117 -364
254 -204 137 -370 253 -370 258 0 5 4 7 9 5 6 -1 185 -120 400 -263z m-4882
-37 c-3 -7 -5 -2 -5 12 0 14 2 19 5 13 2 -7 2 -19 0 -25z m7062 -95 c0 -5 -4
-17 -9 -28 -8 -19 -9 -19 -9 2 -1 12 -9 24 -18 26 -11 3 -7 5 10 6 15 0 27 -2
26 -6z m-669 -43 c0 -5 -5 -10 -11 -10 -5 0 -7 5 -4 10 3 6 8 10 11 10 2 0 4
-4 4 -10z m-1083 -77 c-3 -10 -5 -4 -5 12 0 17 2 24 5 18 2 -7 2 -21 0 -30z
m381 12 c-3 -3 -9 2 -12 12 -6 14 -5 15 5 6 7 -7 10 -15 7 -18z m-5685 -50
c-21 -30 -39 -49 -41 -42 -2 10 65 96 76 97 2 0 -14 -25 -35 -55z m905 18
l-137 -4 -4 -117 -3 -117 -2 123 -2 122 143 -2 142 -2 -137 -3z m4290 -20
c-49 -2 -127 -2 -175 0 -49 1 -9 3 87 3 96 0 136 -2 88 -3z m123 -68 l-8 -70
-2 66 c-1 56 5 86 15 76 2 -1 -1 -34 -5 -72z m-5751 49 c0 -8 -5 -12 -10 -9
-6 4 -8 11 -5 16 9 14 15 11 15 -7z m8737 -16 c-3 -8 -6 -5 -6 6 -1 11 2 17 5
13 3 -3 4 -12 1 -19z m-8375 -50 c-8 -8 -9 -4 -5 13 4 13 8 18 11 10 2 -7 -1
-18 -6 -23z m485 15 c3 -7 -4 -9 -15 -6 -11 2 -29 0 -41 -6 -12 -7 -21 -9 -21
-7 0 8 54 35 64 32 6 -1 11 -7 13 -13z m-522 -83 c-29 -42 -48 -57 -23 -17 8
12 21 32 29 44 7 12 15 20 18 18 2 -3 -9 -23 -24 -45z m7065 15 c0 -8 -7 -15
-15 -15 -13 0 -14 3 -3 15 16 18 18 18 18 0z m-17 -42 c-7 -2 -19 -2 -25 0 -7
3 -2 5 12 5 14 0 19 -2 13 -5z m-6843 -47 c0 -2 -12 -11 -27 -20 l-28 -17 24
20 c23 21 31 25 31 17z m5207 -48 c-2 -13 -4 -5 -4 17 -1 22 1 32 4 23 2 -10
2 -28 0 -40z m536 32 c3 -11 1 -18 -4 -14 -5 3 -9 12 -9 20 0 20 7 17 13 -6z
m-7722 -92 c12 -23 36 -18 -408 -78 -760 -102 -1122 -151 -1258 -170 -366 -51
-598 -80 -602 -76 -8 7 -45 2 1022 146 1138 154 1225 166 1231 172 3 4 -2 19
-11 35 -16 26 -16 27 0 8 9 -11 21 -28 26 -37z m1670 -7 c-26 -37 -26 -45 -1
-31 11 6 20 8 20 6 0 -6 -55 -36 -65 -36 -3 0 8 20 25 45 17 25 33 45 36 45 3
0 -4 -13 -15 -29z m-1121 1 c0 -5 -6 -9 -12 -9 -7 0 -29 -3 -48 -6 l-35 -7 35
14 c41 17 60 19 60 8z m6139 -89 c-1 -23 -2 -24 -6 -6 -2 12 -12 24 -21 26
-12 3 -10 5 6 6 18 1 22 -4 21 -26z m-6637 -28 c3 -14 1 -25 -3 -25 -5 0 -9
11 -9 25 0 14 2 25 4 25 2 0 6 -11 8 -25z m1551 10 c-3 -9 -8 -14 -10 -11 -3
3 -2 9 2 15 9 16 15 13 8 -4z m17 -420 c22 -220 40 -406 40 -414 0 -8 -72 95
-161 229 l-160 243 73 106 c40 58 93 136 118 172 25 37 46 66 48 65 1 -2 20
-182 42 -401z m-512 370 c-2 -1 -19 -10 -38 -20 l-35 -17 30 25 c16 14 34 23
38 20 5 -3 7 -6 5 -8z m7605 8 c-7 -2 -21 -2 -30 0 -10 3 -4 5 12 5 17 0 24
-2 18 -5z m-8654 -30 c0 -25 -1 -25 -8 -8 -5 11 -7 23 -4 28 8 14 13 7 12 -20z
m-14 -98 c-3 -26 -9 -44 -12 -41 -3 3 -2 26 2 51 3 26 9 44 12 41 3 -3 2 -26
-2 -51z m4152 3 c-3 -7 -5 -2 -5 12 0 14 2 19 5 13 2 -7 2 -19 0 -25z m-3517
-78 c0 -13 -1 -13 -10 0 -5 8 -10 22 -10 30 0 13 1 13 10 0 5 -8 10 -22 10
-30z m1767 -2 c-3 -8 -6 -5 -6 6 -1 11 2 17 5 13 3 -3 4 -12 1 -19z m-1147
-44 c18 -25 30 -47 28 -49 -1 -2 -18 19 -36 46 -41 62 -34 65 8 3z m-610 16
c0 -5 -5 -10 -11 -10 -5 0 -7 5 -4 10 3 6 8 10 11 10 2 0 4 -4 4 -10z m1763
-7 c-7 -2 -19 -2 -25 0 -7 3 -2 5 12 5 14 0 19 -2 13 -5z m-438 -63 c-3 -5
-14 -10 -23 -10 -15 0 -15 2 -2 10 20 13 33 13 25 0z m12 -26 c-3 -3 -12 -4
-19 -1 -8 3 -5 6 6 6 11 1 17 -2 13 -5z m5586 -1 c-7 -2 -19 -2 -25 0 -7 3 -2
5 12 5 14 0 19 -2 13 -5z m-6285 -26 c-7 -7 -21 -21 -32 -32 -12 -13 -11 -8 5
17 13 20 27 34 32 31 4 -3 2 -10 -5 -16z m-44 -9 c-24 -41 -105 -158 -110
-158 -2 0 14 27 37 61 22 33 42 68 43 76 1 8 9 19 17 24 19 12 22 11 13 -3z
m-1927 -34 c-3 -3 -12 -4 -19 -1 -8 3 -5 6 6 6 11 1 17 -2 13 -5z m-40 -10
c-3 -3 -12 -4 -19 -1 -8 3 -5 6 6 6 11 1 17 -2 13 -5z m1002 3 c-28 -23 -109
-64 -109 -57 0 9 86 59 104 60 5 0 7 -1 5 -3z m9466 -77 c3 -5 1 -10 -4 -10
-6 0 -11 5 -11 10 0 6 2 10 4 10 3 0 8 -4 11 -10z m35 6 c0 -3 -4 -8 -10 -11
-5 -3 -10 -1 -10 4 0 6 5 11 10 11 6 0 10 -2 10 -4z m-8680 -101 c-17 -25 -33
-45 -36 -45 -3 0 9 20 26 45 17 25 33 45 36 45 3 0 -9 -20 -26 -45z m-230 20
c0 -5 -55 -35 -65 -35 -3 0 -5 5 -5 11 0 5 3 8 8 5 4 -2 18 2 32 10 29 15 30
16 30 9z m-91 -56 c-8 -5 -33 -20 -56 -34 -60 -36 -54 -24 7 15 28 18 50 37
51 44 0 6 3 5 6 -3 3 -8 -1 -17 -8 -22z m2851 -212 c-4 -5 -16 -7 -26 -4 -16
4 -16 5 3 6 19 1 21 6 17 44 l-3 42 8 -40 c5 -22 6 -44 1 -48z m-2036 33 c31
-47 31 -50 9 -50 -9 0 -14 3 -10 6 3 4 -3 24 -14 45 -25 50 -19 50 15 -1z
m4336 36 c0 -2 -9 -6 -20 -9 -11 -3 -18 -1 -14 4 5 9 34 13 34 5z m-3350 -31
c0 -14 -2 -25 -4 -25 -2 0 -6 11 -8 25 -3 14 -1 25 3 25 5 0 9 -11 9 -25z
m2625 15 c3 -5 1 -10 -4 -10 -6 0 -11 5 -11 10 0 6 2 10 4 10 3 0 8 -4 11 -10z
m-1525 -46 c0 -2 -7 -4 -15 -4 -8 0 -15 4 -15 10 0 5 7 7 15 4 8 -4 15 -8 15
-10z m1527 -21 c-3 -10 -5 -4 -5 12 0 17 2 24 5 18 2 -7 2 -21 0 -30z m-4877
-38 c0 -5 -5 -3 -10 5 -5 8 -10 20 -10 25 0 6 5 3 10 -5 5 -8 10 -19 10 -25z
m3307 29 c-3 -3 -12 -4 -19 -1 -8 3 -5 6 6 6 11 1 17 -2 13 -5z m-2007 -26 c0
-19 -2 -20 -10 -8 -13 19 -13 30 0 30 6 0 10 -10 10 -22z m950 -2 c0 -3 -4 -8
-10 -11 -5 -3 -10 -1 -10 4 0 6 5 11 10 11 6 0 10 -2 10 -4z m-836 -146 c4 -8
-3 -1 -16 15 -12 17 -35 43 -50 58 -16 16 -28 38 -28 49 0 14 14 0 43 -43 24
-35 47 -71 51 -79z m834 83 c-1 -37 -1 -37 -5 -6 -3 23 -10 33 -26 36 -18 4
-17 5 6 6 25 1 27 -2 25 -36z m-1728 -43 c0 -5 -5 -10 -11 -10 -5 0 -7 5 -4
10 3 6 8 10 11 10 2 0 4 -4 4 -10z m75 -15 c-5 -2 -28 -9 -50 -14 -40 -10 -41
-11 -38 -53 l2 -43 -9 44 c-5 25 -8 47 -5 49 6 6 67 20 90 20 11 0 16 -1 10
-3z m8892 -47 c-3 -7 -5 -2 -5 12 0 14 2 19 5 13 2 -7 2 -19 0 -25z m483 12
c0 -5 -5 -10 -11 -10 -5 0 -7 5 -4 10 3 6 8 10 11 10 2 0 4 -4 4 -10z m-9490
-9 c0 -5 -7 -12 -16 -15 -14 -5 -15 -4 -4 9 14 17 20 19 20 6z m9020 -41 c0
-13 -7 -20 -20 -20 -19 0 -19 1 -2 19 22 25 22 25 22 1z m-8983 -62 c-3 -7 -5
-2 -5 12 0 14 2 19 5 13 2 -7 2 -19 0 -25z m-1597 -194 c0 -8 -5 -12 -10 -9
-6 4 -8 11 -5 16 9 14 15 11 15 -7z m5059 -38 c-2 -2 -15 -7 -29 -10 l-25 -7
25 15 c21 12 42 14 29 2z m-516 -103 c-7 -2 -19 -2 -25 0 -7 3 -2 5 12 5 14 0
19 -2 13 -5z m-4553 -33 c0 -5 -5 -10 -11 -10 -5 0 -7 5 -4 10 3 6 8 10 11 10
2 0 4 -4 4 -10z m2444 -93 c4 -19 3 -26 -4 -22 -5 3 -10 18 -10 32 0 32 5 28
14 -10z m1526 13 c0 -5 -2 -10 -4 -10 -3 0 -8 5 -11 10 -3 6 -1 10 4 10 6 0
11 -4 11 -10z m3817 -502 c-2 -18 -4 -6 -4 27 0 33 2 48 4 33 2 -15 2 -42 0
-60z m-9280 5 c-3 -10 -5 -4 -5 12 0 17 2 24 5 18 2 -7 2 -21 0 -30z m2233
-98 c0 -8 -4 -15 -8 -15 -5 0 -9 7 -9 15 0 8 4 15 9 15 4 0 8 -7 8 -15z
m-2203 -1 c-3 -3 -12 -4 -19 -1 -8 3 -5 6 6 6 11 1 17 -2 13 -5z m2272 -40 c2
-2 -15 -4 -38 -4 -25 0 -40 4 -36 10 5 8 63 3 74 -6z m8670 -38 c-9 -8 -10 -7
-5 7 3 10 7 26 7 35 1 9 4 6 6 -7 3 -13 -1 -28 -8 -35z m-6159 14 c0 -5 -19
-9 -42 -9 l-43 2 40 7 c22 4 41 8 43 9 1 0 2 -3 2 -9z m6187 -12 c-3 -8 -6 -5
-6 6 -1 11 2 17 5 13 3 -3 4 -12 1 -19z"/>
</g>
</svg>
